<svg width="80" height="90" viewBox="0 0 80 90" fill="none" xmlns="http://www.w3.org/2000/svg">
<path d="M67.7199 78C64.5015 78 61.8842 80.6918 61.8842 84C61.8842 87.3082 64.5015 90 67.7199 90C70.9384 90 73.5557 87.3082 73.5557 84C73.5557 80.6918 70.9384 78 67.7199 78ZM67.7199 87C66.1115 87 64.8021 85.6545 64.8021 84C64.8021 82.3455 66.1115 81 67.7199 81C69.3284 81 70.6378 82.3455 70.6378 84C70.6378 85.6545 69.3284 87 67.7199 87ZM24.8744 77.25C24.8744 78.1883 24.1347 78.9487 23.2221 78.9487C22.3096 78.9487 21.5699 78.1883 21.5699 77.25C21.5699 76.3121 22.3096 75.5516 23.2221 75.5516C24.1347 75.5516 24.8744 76.3121 24.8744 77.25ZM11.7439 83.25C11.7439 84.1883 11.0042 84.9487 10.0916 84.9487C9.17907 84.9487 8.43938 84.1883 8.43938 83.25C8.43938 82.3121 9.17907 81.5516 10.0916 81.5516C11.0042 81.5516 11.7439 82.3121 11.7439 83.25ZM8.43938 11.25C8.43938 10.3121 9.17907 9.55162 10.0916 9.55162C11.0042 9.55162 11.7439 10.3121 11.7439 11.25C11.7439 12.1883 11.0042 12.9487 10.0916 12.9487C9.17907 12.9487 8.43938 12.1883 8.43938 11.25ZM41.3477 47.4259C41.1227 46.8656 40.5898 46.5 40 46.5C39.4102 46.5 38.8773 46.8656 38.6523 47.4259L30.7963 66.9251C30.6482 67.2926 30.6482 67.7059 30.7963 68.0734L38.6523 87.5741C38.8773 88.1344 39.4102 88.5 40 88.5C40.5898 88.5 41.1227 88.1344 41.3477 87.5741L49.2038 68.0734C49.3518 67.7059 49.3518 67.2926 49.2038 66.9251L41.3477 47.4259ZM40 83.0801L33.7225 67.4993L40 51.9199L46.2775 67.4993L40 83.0801ZM38.6523 41.0741C38.8773 41.6344 39.4102 42 40 42C40.5898 42 41.1227 41.6344 41.3477 41.0741L49.2038 21.5734C49.3518 21.2059 49.3518 20.7926 49.2038 20.4251L41.3477 0.925873C41.1227 0.365623 40.5898 0 40 0C39.4102 0 38.8773 0.365623 38.6523 0.925873L30.7963 20.4251C30.6482 20.7926 30.6482 21.2059 30.7963 21.5734L38.6523 41.0741ZM40 5.41988L46.2775 20.9993L40 36.5801L33.7225 20.9993L40 5.41988ZM42.1344 42.4635C42.3595 43.0237 42.8909 43.3901 43.4807 43.3909L64.0084 43.413H64.0099C64.3961 43.413 64.7663 43.2555 65.0399 42.975L79.571 28.065C79.9897 27.6356 80.1151 26.9914 79.8886 26.4304C79.6636 25.8701 79.1322 25.5037 78.5424 25.503L58.0132 25.4816H58.0118C57.6255 25.4816 57.2553 25.6391 56.9818 25.9196L42.4521 40.8289C42.033 41.2579 41.9076 41.9025 42.1344 42.4635ZM58.6143 28.4824L75.0176 28.4993L63.4073 40.4123L47.0055 40.3946L58.6143 28.4824ZM21.9868 63.0191C22.373 63.0191 22.7432 62.8616 23.0168 62.5811L37.5479 47.6711C37.9666 47.2418 38.0921 46.5975 37.8656 46.0365C37.6405 45.4763 37.1091 45.1099 36.5193 45.1091L15.9901 45.0877H15.9887C15.6024 45.0877 15.2322 45.2452 14.9587 45.5257L0.429045 60.435C0.0103275 60.8644 -0.115143 61.5086 0.111359 62.0696C0.336401 62.6299 0.867825 62.9962 1.4576 62.997L21.9853 63.0191H21.9868ZM4.98241 60.0007L16.5912 48.0885L32.9945 48.1054L21.3842 60.0184L4.98241 60.0007ZM14.9601 42.975C15.2337 43.2555 15.6043 43.413 15.9901 43.413H15.9916L36.5193 43.3909C37.1091 43.3901 37.6405 43.0237 37.8656 42.4635C38.0921 41.9025 37.9666 41.2579 37.5479 40.8289L23.0182 25.9196C22.7447 25.6391 22.3741 25.4816 21.9882 25.4816H21.9868L1.4576 25.503C0.867825 25.5037 0.336401 25.8701 0.111359 26.4304C-0.115143 26.9914 0.0103275 27.636 0.429045 28.065L14.9601 42.975ZM65.0413 45.5257C64.7678 45.2452 64.3972 45.0877 64.0113 45.0877H64.0099L43.4807 45.1091C42.8909 45.1099 42.3595 45.4763 42.1344 46.0365C41.9079 46.5975 42.0334 47.2421 42.4521 47.6711L56.9832 62.5811C57.2568 62.8616 57.6273 63.0191 58.0132 63.0191H58.0147L78.5424 62.997C79.1322 62.9962 79.6636 62.6299 79.8886 62.0696C80.1151 61.5086 79.9897 60.864 79.571 60.435L65.0413 45.5257Z" fill="#21560F"/>
</svg>
