<svg xmlns="http://www.w3.org/2000/svg">
  <symbol viewBox="0 0 80 90" fill="none" xmlns="http://www.w3.org/2000/svg" id="icon-figure-1">
    <path d="M12.2801 12C15.4985 12 18.1158 9.30825 18.1158 6C18.1158 2.69175 15.4985 0 12.2801 0C9.06162 0 6.44427 2.69175 6.44427 6C6.44427 9.30825 9.06162 12 12.2801 12ZM12.2801 3C13.8885 3 15.1979 4.3455 15.1979 6C15.1979 7.6545 13.8885 9 12.2801 9C10.6716 9 9.36216 7.6545 9.36216 6C9.36216 4.3455 10.6716 3 12.2801 3ZM55.1256 12.75C55.1256 11.8117 55.8653 11.0513 56.7779 11.0513C57.6904 11.0513 58.4301 11.8117 58.4301 12.75C58.4301 13.6879 57.6904 14.4484 56.7779 14.4484C55.8653 14.4484 55.1256 13.6879 55.1256 12.75ZM68.2561 6.75C68.2561 5.81175 68.9958 5.05125 69.9084 5.05125C70.8209 5.05125 71.5606 5.81175 71.5606 6.75C71.5606 7.68787 70.8209 8.44837 69.9084 8.44837C68.9958 8.44837 68.2561 7.68787 68.2561 6.75ZM71.5606 78.75C71.5606 79.6879 70.8209 80.4484 69.9084 80.4484C68.9958 80.4484 68.2561 79.6879 68.2561 78.75C68.2561 77.8117 68.9958 77.0513 69.9084 77.0513C70.8209 77.0513 71.5606 77.8117 71.5606 78.75ZM38.6523 42.5741C38.8773 43.1344 39.4102 43.5 40 43.5C40.5898 43.5 41.1227 43.1344 41.3477 42.5741L49.2037 23.0749C49.3518 22.7074 49.3518 22.2941 49.2037 21.9266L41.3477 2.42588C41.1227 1.86563 40.5898 1.5 40 1.5C39.4102 1.5 38.8773 1.86563 38.6523 2.42588L30.7962 21.9266C30.6482 22.2941 30.6482 22.7074 30.7962 23.0749L38.6523 42.5741ZM40 6.91987L46.2775 22.5007L40 38.0801L33.7225 22.5007L40 6.91987ZM41.3477 48.9259C41.1227 48.3656 40.5898 48 40 48C39.4102 48 38.8773 48.3656 38.6523 48.9259L30.7962 68.4266C30.6482 68.7941 30.6482 69.2074 30.7962 69.5749L38.6523 89.0741C38.8773 89.6344 39.4102 90 40 90C40.5898 90 41.1227 89.6344 41.3477 89.0741L49.2037 69.5749C49.3518 69.2074 49.3518 68.7941 49.2037 68.4266L41.3477 48.9259ZM40 84.5801L33.7225 69.0007L40 53.4199L46.2775 69.0007L40 84.5801ZM37.8656 47.5365C37.6405 46.9763 37.1091 46.6099 36.5193 46.6091L15.9916 46.587H15.9901C15.6039 46.587 15.2337 46.7445 14.9601 47.025L0.429043 61.935C0.0103262 62.3644 -0.115142 63.0086 0.111359 63.5696C0.336401 64.1299 0.867821 64.4963 1.4576 64.497L21.9868 64.5184H21.9882C22.3745 64.5184 22.7447 64.3609 23.0182 64.0804L37.5479 49.1711C37.967 48.7421 38.0924 48.0975 37.8656 47.5365ZM21.3857 61.5176L4.98241 61.5007L16.5927 49.5877L32.9945 49.6054L21.3857 61.5176ZM58.0132 26.9809C57.627 26.9809 57.2568 27.1384 56.9832 27.4189L42.4521 42.3289C42.0334 42.7582 41.9079 43.4025 42.1344 43.9635C42.3595 44.5237 42.8909 44.8901 43.4807 44.8909L64.0099 44.9123H64.0113C64.3976 44.9123 64.7678 44.7548 65.0413 44.4743L79.571 29.565C79.9897 29.1356 80.1151 28.4914 79.8886 27.9304C79.6636 27.3701 79.1322 27.0038 78.5424 27.003L58.0147 26.9809H58.0132ZM75.0176 29.9993L63.4088 41.9115L47.0055 41.8946L58.6158 29.9816L75.0176 29.9993ZM65.0399 47.025C64.7663 46.7445 64.3957 46.587 64.0099 46.587H64.0084L43.4807 46.6091C42.8909 46.6099 42.3595 46.9763 42.1344 47.5365C41.9079 48.0975 42.0334 48.7421 42.4521 49.1711L56.9818 64.0804C57.2553 64.3609 57.6259 64.5184 58.0118 64.5184H58.0132L78.5424 64.497C79.1322 64.4963 79.6636 64.1299 79.8886 63.5696C80.1151 63.0086 79.9897 62.364 79.571 61.935L65.0399 47.025ZM14.9587 44.4743C15.2322 44.7548 15.6028 44.9123 15.9887 44.9123H15.9901L36.5193 44.8909C37.1091 44.8901 37.6405 44.5237 37.8656 43.9635C38.0921 43.4025 37.9666 42.7579 37.5479 42.3289L23.0168 27.4189C22.7432 27.1384 22.3727 26.9809 21.9868 26.9809H21.9853L1.4576 27.003C0.867821 27.0038 0.336401 27.3701 0.111359 27.9304C-0.115142 28.4914 0.0103262 29.136 0.429043 29.565L14.9587 44.4743Z" fill="#21560F"/>
  </symbol>
  <symbol viewBox="0 0 80 90" fill="none" xmlns="http://www.w3.org/2000/svg" id="icon-figure-2">
    <path d="M67.7199 78C64.5015 78 61.8842 80.6918 61.8842 84C61.8842 87.3082 64.5015 90 67.7199 90C70.9384 90 73.5557 87.3082 73.5557 84C73.5557 80.6918 70.9384 78 67.7199 78ZM67.7199 87C66.1115 87 64.8021 85.6545 64.8021 84C64.8021 82.3455 66.1115 81 67.7199 81C69.3284 81 70.6378 82.3455 70.6378 84C70.6378 85.6545 69.3284 87 67.7199 87ZM24.8744 77.25C24.8744 78.1883 24.1347 78.9487 23.2221 78.9487C22.3096 78.9487 21.5699 78.1883 21.5699 77.25C21.5699 76.3121 22.3096 75.5516 23.2221 75.5516C24.1347 75.5516 24.8744 76.3121 24.8744 77.25ZM11.7439 83.25C11.7439 84.1883 11.0042 84.9487 10.0916 84.9487C9.17907 84.9487 8.43938 84.1883 8.43938 83.25C8.43938 82.3121 9.17907 81.5516 10.0916 81.5516C11.0042 81.5516 11.7439 82.3121 11.7439 83.25ZM8.43938 11.25C8.43938 10.3121 9.17907 9.55162 10.0916 9.55162C11.0042 9.55162 11.7439 10.3121 11.7439 11.25C11.7439 12.1883 11.0042 12.9487 10.0916 12.9487C9.17907 12.9487 8.43938 12.1883 8.43938 11.25ZM41.3477 47.4259C41.1227 46.8656 40.5898 46.5 40 46.5C39.4102 46.5 38.8773 46.8656 38.6523 47.4259L30.7963 66.9251C30.6482 67.2926 30.6482 67.7059 30.7963 68.0734L38.6523 87.5741C38.8773 88.1344 39.4102 88.5 40 88.5C40.5898 88.5 41.1227 88.1344 41.3477 87.5741L49.2038 68.0734C49.3518 67.7059 49.3518 67.2926 49.2038 66.9251L41.3477 47.4259ZM40 83.0801L33.7225 67.4993L40 51.9199L46.2775 67.4993L40 83.0801ZM38.6523 41.0741C38.8773 41.6344 39.4102 42 40 42C40.5898 42 41.1227 41.6344 41.3477 41.0741L49.2038 21.5734C49.3518 21.2059 49.3518 20.7926 49.2038 20.4251L41.3477 0.925873C41.1227 0.365623 40.5898 0 40 0C39.4102 0 38.8773 0.365623 38.6523 0.925873L30.7963 20.4251C30.6482 20.7926 30.6482 21.2059 30.7963 21.5734L38.6523 41.0741ZM40 5.41988L46.2775 20.9993L40 36.5801L33.7225 20.9993L40 5.41988ZM42.1344 42.4635C42.3595 43.0237 42.8909 43.3901 43.4807 43.3909L64.0084 43.413H64.0099C64.3961 43.413 64.7663 43.2555 65.0399 42.975L79.571 28.065C79.9897 27.6356 80.1151 26.9914 79.8886 26.4304C79.6636 25.8701 79.1322 25.5037 78.5424 25.503L58.0132 25.4816H58.0118C57.6255 25.4816 57.2553 25.6391 56.9818 25.9196L42.4521 40.8289C42.033 41.2579 41.9076 41.9025 42.1344 42.4635ZM58.6143 28.4824L75.0176 28.4993L63.4073 40.4123L47.0055 40.3946L58.6143 28.4824ZM21.9868 63.0191C22.373 63.0191 22.7432 62.8616 23.0168 62.5811L37.5479 47.6711C37.9666 47.2418 38.0921 46.5975 37.8656 46.0365C37.6405 45.4763 37.1091 45.1099 36.5193 45.1091L15.9901 45.0877H15.9887C15.6024 45.0877 15.2322 45.2452 14.9587 45.5257L0.429045 60.435C0.0103275 60.8644 -0.115143 61.5086 0.111359 62.0696C0.336401 62.6299 0.867825 62.9962 1.4576 62.997L21.9853 63.0191H21.9868ZM4.98241 60.0007L16.5912 48.0885L32.9945 48.1054L21.3842 60.0184L4.98241 60.0007ZM14.9601 42.975C15.2337 43.2555 15.6043 43.413 15.9901 43.413H15.9916L36.5193 43.3909C37.1091 43.3901 37.6405 43.0237 37.8656 42.4635C38.0921 41.9025 37.9666 41.2579 37.5479 40.8289L23.0182 25.9196C22.7447 25.6391 22.3741 25.4816 21.9882 25.4816H21.9868L1.4576 25.503C0.867825 25.5037 0.336401 25.8701 0.111359 26.4304C-0.115143 26.9914 0.0103275 27.636 0.429045 28.065L14.9601 42.975ZM65.0413 45.5257C64.7678 45.2452 64.3972 45.0877 64.0113 45.0877H64.0099L43.4807 45.1091C42.8909 45.1099 42.3595 45.4763 42.1344 46.0365C41.9079 46.5975 42.0334 47.2421 42.4521 47.6711L56.9832 62.5811C57.2568 62.8616 57.6273 63.0191 58.0132 63.0191H58.0147L78.5424 62.997C79.1322 62.9962 79.6636 62.6299 79.8886 62.0696C80.1151 61.5086 79.9897 60.864 79.571 60.435L65.0413 45.5257Z" fill="#21560F"/>
  </symbol>
</svg>
